<mxfile host="app.diagrams.net" modified="2024-03-13T23:26:05.800Z" agent="Mozilla/5.0 (Macintosh; Intel Mac OS X 10_15_7) AppleWebKit/537.36 (KHTML, like Gecko) Chrome/122.0.0.0 Safari/537.36" etag="jQkb2eLVi2e1PPMa6gaD" version="24.0.2" type="device">
  <diagram name="PÃ¡gina-1" id="uH68xMpEIBQ5nLfllBpA">
    <mxGraphModel dx="3140" dy="2772" grid="1" gridSize="10" guides="1" tooltips="1" connect="1" arrows="1" fold="1" page="1" pageScale="1" pageWidth="827" pageHeight="1169" math="0" shadow="0">
      <root>
        <mxCell id="0" />
        <mxCell id="1" parent="0" />
        <mxCell id="9TOt8isL0yTTxPqxEXAX-2" value="&lt;font style=&quot;font-size: 18px;&quot;&gt;Pagina inicio&lt;/font&gt;" style="text;html=1;align=center;verticalAlign=middle;resizable=0;points=[];autosize=1;strokeColor=none;fillColor=none;" vertex="1" parent="1">
          <mxGeometry x="420" y="10" width="130" height="40" as="geometry" />
        </mxCell>
        <mxCell id="9TOt8isL0yTTxPqxEXAX-3" value="" style="rounded=0;whiteSpace=wrap;html=1;" vertex="1" parent="1">
          <mxGeometry x="40" y="80" width="240" height="430" as="geometry" />
        </mxCell>
        <mxCell id="9TOt8isL0yTTxPqxEXAX-4" value="" style="rounded=0;whiteSpace=wrap;html=1;" vertex="1" parent="1">
          <mxGeometry x="320" y="80" width="600" height="430" as="geometry" />
        </mxCell>
        <mxCell id="9TOt8isL0yTTxPqxEXAX-6" value="" style="rounded=1;whiteSpace=wrap;html=1;" vertex="1" parent="1">
          <mxGeometry x="55" y="200" width="210" height="150" as="geometry" />
        </mxCell>
        <mxCell id="9TOt8isL0yTTxPqxEXAX-5" value="" style="ellipse;whiteSpace=wrap;html=1;aspect=fixed;" vertex="1" parent="1">
          <mxGeometry x="120" y="210" width="80" height="80" as="geometry" />
        </mxCell>
        <mxCell id="9TOt8isL0yTTxPqxEXAX-8" value="Titulo" style="text;html=1;align=center;verticalAlign=middle;whiteSpace=wrap;rounded=0;" vertex="1" parent="1">
          <mxGeometry x="130" y="120" width="60" height="30" as="geometry" />
        </mxCell>
        <mxCell id="9TOt8isL0yTTxPqxEXAX-10" value="Mesas" style="rounded=1;whiteSpace=wrap;html=1;" vertex="1" parent="1">
          <mxGeometry x="120" y="470" width="80" height="20" as="geometry" />
        </mxCell>
        <mxCell id="9TOt8isL0yTTxPqxEXAX-11" value="" style="rounded=1;whiteSpace=wrap;html=1;" vertex="1" parent="1">
          <mxGeometry x="85" y="310" width="150" height="30" as="geometry" />
        </mxCell>
        <mxCell id="9TOt8isL0yTTxPqxEXAX-12" value="" style="rounded=1;whiteSpace=wrap;html=1;" vertex="1" parent="1">
          <mxGeometry x="470" y="180" width="335" height="190" as="geometry" />
        </mxCell>
        <mxCell id="9TOt8isL0yTTxPqxEXAX-13" value="" style="ellipse;whiteSpace=wrap;html=1;aspect=fixed;" vertex="1" parent="1">
          <mxGeometry x="520" y="220" width="80" height="80" as="geometry" />
        </mxCell>
        <mxCell id="9TOt8isL0yTTxPqxEXAX-14" value="" style="rounded=1;whiteSpace=wrap;html=1;" vertex="1" parent="1">
          <mxGeometry x="500" y="330" width="120" height="20" as="geometry" />
        </mxCell>
        <mxCell id="9TOt8isL0yTTxPqxEXAX-16" value="Como jugar" style="whiteSpace=wrap;html=1;aspect=fixed;" vertex="1" parent="1">
          <mxGeometry x="650" y="210" width="140" height="140" as="geometry" />
        </mxCell>
        <mxCell id="9TOt8isL0yTTxPqxEXAX-17" value="Mesas" style="rounded=1;whiteSpace=wrap;html=1;" vertex="1" parent="1">
          <mxGeometry x="600" y="470" width="80" height="20" as="geometry" />
        </mxCell>
        <mxCell id="9TOt8isL0yTTxPqxEXAX-19" value="&lt;font style=&quot;font-size: 18px;&quot;&gt;Loby mesas&lt;/font&gt;" style="text;html=1;align=center;verticalAlign=middle;resizable=0;points=[];autosize=1;strokeColor=none;fillColor=none;" vertex="1" parent="1">
          <mxGeometry x="425" y="580" width="120" height="40" as="geometry" />
        </mxCell>
        <mxCell id="9TOt8isL0yTTxPqxEXAX-21" value="" style="rounded=0;whiteSpace=wrap;html=1;" vertex="1" parent="1">
          <mxGeometry x="40" y="680" width="240" height="390" as="geometry" />
        </mxCell>
        <mxCell id="9TOt8isL0yTTxPqxEXAX-28" value="" style="rounded=1;whiteSpace=wrap;html=1;" vertex="1" parent="1">
          <mxGeometry x="50" y="720" width="220" height="320" as="geometry" />
        </mxCell>
        <mxCell id="9TOt8isL0yTTxPqxEXAX-31" value="" style="endArrow=none;html=1;rounded=0;exitX=0.004;exitY=0.135;exitDx=0;exitDy=0;exitPerimeter=0;entryX=1;entryY=0.131;entryDx=0;entryDy=0;entryPerimeter=0;" edge="1" parent="1" source="9TOt8isL0yTTxPqxEXAX-28" target="9TOt8isL0yTTxPqxEXAX-28">
          <mxGeometry width="50" height="50" relative="1" as="geometry">
            <mxPoint x="390" y="860" as="sourcePoint" />
            <mxPoint x="440" y="810" as="targetPoint" />
          </mxGeometry>
        </mxCell>
        <mxCell id="9TOt8isL0yTTxPqxEXAX-32" value="Publica" style="text;html=1;align=center;verticalAlign=middle;resizable=0;points=[];autosize=1;strokeColor=none;fillColor=#E6FF05;" vertex="1" parent="1">
          <mxGeometry x="85" y="730" width="60" height="30" as="geometry" />
        </mxCell>
        <mxCell id="9TOt8isL0yTTxPqxEXAX-33" value="Privada" style="text;html=1;align=center;verticalAlign=middle;resizable=0;points=[];autosize=1;strokeColor=none;fillColor=none;" vertex="1" parent="1">
          <mxGeometry x="175" y="730" width="60" height="30" as="geometry" />
        </mxCell>
        <mxCell id="9TOt8isL0yTTxPqxEXAX-34" value="" style="endArrow=none;html=1;rounded=0;entryX=0.5;entryY=0;entryDx=0;entryDy=0;" edge="1" parent="1" target="9TOt8isL0yTTxPqxEXAX-28">
          <mxGeometry width="50" height="50" relative="1" as="geometry">
            <mxPoint x="160" y="760" as="sourcePoint" />
            <mxPoint x="440" y="810" as="targetPoint" />
          </mxGeometry>
        </mxCell>
        <mxCell id="9TOt8isL0yTTxPqxEXAX-35" value="" style="whiteSpace=wrap;html=1;aspect=fixed;" vertex="1" parent="1">
          <mxGeometry x="75" y="770" width="80" height="80" as="geometry" />
        </mxCell>
        <mxCell id="9TOt8isL0yTTxPqxEXAX-36" value="" style="whiteSpace=wrap;html=1;aspect=fixed;" vertex="1" parent="1">
          <mxGeometry x="165" y="770" width="80" height="80" as="geometry" />
        </mxCell>
        <mxCell id="9TOt8isL0yTTxPqxEXAX-37" value="" style="whiteSpace=wrap;html=1;aspect=fixed;" vertex="1" parent="1">
          <mxGeometry x="75" y="860" width="80" height="80" as="geometry" />
        </mxCell>
        <mxCell id="9TOt8isL0yTTxPqxEXAX-38" value="" style="whiteSpace=wrap;html=1;aspect=fixed;" vertex="1" parent="1">
          <mxGeometry x="165" y="860" width="80" height="80" as="geometry" />
        </mxCell>
        <mxCell id="9TOt8isL0yTTxPqxEXAX-39" value="" style="whiteSpace=wrap;html=1;aspect=fixed;" vertex="1" parent="1">
          <mxGeometry x="75" y="945" width="80" height="80" as="geometry" />
        </mxCell>
        <mxCell id="9TOt8isL0yTTxPqxEXAX-40" value="" style="whiteSpace=wrap;html=1;aspect=fixed;" vertex="1" parent="1">
          <mxGeometry x="165" y="945" width="80" height="80" as="geometry" />
        </mxCell>
        <mxCell id="9TOt8isL0yTTxPqxEXAX-41" value="" style="rounded=0;whiteSpace=wrap;html=1;" vertex="1" parent="1">
          <mxGeometry x="40" y="1080" width="240" height="390" as="geometry" />
        </mxCell>
        <mxCell id="9TOt8isL0yTTxPqxEXAX-42" value="" style="rounded=1;whiteSpace=wrap;html=1;" vertex="1" parent="1">
          <mxGeometry x="50" y="1120" width="220" height="320" as="geometry" />
        </mxCell>
        <mxCell id="9TOt8isL0yTTxPqxEXAX-43" value="" style="endArrow=none;html=1;rounded=0;exitX=0.004;exitY=0.135;exitDx=0;exitDy=0;exitPerimeter=0;entryX=1;entryY=0.131;entryDx=0;entryDy=0;entryPerimeter=0;" edge="1" parent="1" source="9TOt8isL0yTTxPqxEXAX-42" target="9TOt8isL0yTTxPqxEXAX-42">
          <mxGeometry width="50" height="50" relative="1" as="geometry">
            <mxPoint x="390" y="1260" as="sourcePoint" />
            <mxPoint x="440" y="1210" as="targetPoint" />
          </mxGeometry>
        </mxCell>
        <mxCell id="9TOt8isL0yTTxPqxEXAX-44" value="Publica" style="text;html=1;align=center;verticalAlign=middle;resizable=0;points=[];autosize=1;strokeColor=none;fillColor=#FFFBF2;" vertex="1" parent="1">
          <mxGeometry x="85" y="1130" width="60" height="30" as="geometry" />
        </mxCell>
        <mxCell id="9TOt8isL0yTTxPqxEXAX-45" value="Privada" style="text;html=1;align=center;verticalAlign=middle;resizable=0;points=[];autosize=1;strokeColor=none;fillColor=#DDFF00;" vertex="1" parent="1">
          <mxGeometry x="175" y="1130" width="60" height="30" as="geometry" />
        </mxCell>
        <mxCell id="9TOt8isL0yTTxPqxEXAX-46" value="" style="endArrow=none;html=1;rounded=0;entryX=0.5;entryY=0;entryDx=0;entryDy=0;" edge="1" parent="1" target="9TOt8isL0yTTxPqxEXAX-42">
          <mxGeometry width="50" height="50" relative="1" as="geometry">
            <mxPoint x="160" y="1160" as="sourcePoint" />
            <mxPoint x="440" y="1210" as="targetPoint" />
          </mxGeometry>
        </mxCell>
        <mxCell id="9TOt8isL0yTTxPqxEXAX-53" value="" style="rounded=0;whiteSpace=wrap;html=1;" vertex="1" parent="1">
          <mxGeometry x="85" y="1240" width="150" height="30" as="geometry" />
        </mxCell>
        <mxCell id="9TOt8isL0yTTxPqxEXAX-54" value="" style="rounded=0;whiteSpace=wrap;html=1;" vertex="1" parent="1">
          <mxGeometry x="85" y="1290" width="150" height="30" as="geometry" />
        </mxCell>
        <mxCell id="9TOt8isL0yTTxPqxEXAX-56" value="" style="rounded=1;whiteSpace=wrap;html=1;" vertex="1" parent="1">
          <mxGeometry x="115" y="1360" width="90" height="30" as="geometry" />
        </mxCell>
        <mxCell id="9TOt8isL0yTTxPqxEXAX-57" value="Ingrese codigo" style="text;html=1;align=center;verticalAlign=middle;whiteSpace=wrap;rounded=0;" vertex="1" parent="1">
          <mxGeometry x="100" y="1240" width="120" height="30" as="geometry" />
        </mxCell>
        <mxCell id="9TOt8isL0yTTxPqxEXAX-58" value="Ingrese contraseÃ±a" style="text;html=1;align=center;verticalAlign=middle;whiteSpace=wrap;rounded=0;" vertex="1" parent="1">
          <mxGeometry x="100" y="1290" width="120" height="30" as="geometry" />
        </mxCell>
        <mxCell id="9TOt8isL0yTTxPqxEXAX-59" value="" style="rounded=0;whiteSpace=wrap;html=1;" vertex="1" parent="1">
          <mxGeometry x="320" y="680" width="680" height="400" as="geometry" />
        </mxCell>
        <mxCell id="9TOt8isL0yTTxPqxEXAX-61" value="" style="rounded=0;whiteSpace=wrap;html=1;" vertex="1" parent="1">
          <mxGeometry x="350" y="720" width="610" height="320" as="geometry" />
        </mxCell>
        <mxCell id="9TOt8isL0yTTxPqxEXAX-62" value="" style="rounded=0;whiteSpace=wrap;html=1;" vertex="1" parent="1">
          <mxGeometry x="580" y="730" width="367" height="300" as="geometry" />
        </mxCell>
        <mxCell id="9TOt8isL0yTTxPqxEXAX-63" value="" style="rounded=0;whiteSpace=wrap;html=1;" vertex="1" parent="1">
          <mxGeometry x="600" y="750" width="100" height="70" as="geometry" />
        </mxCell>
        <mxCell id="9TOt8isL0yTTxPqxEXAX-64" value="" style="rounded=0;whiteSpace=wrap;html=1;" vertex="1" parent="1">
          <mxGeometry x="727" y="750" width="100" height="70" as="geometry" />
        </mxCell>
        <mxCell id="9TOt8isL0yTTxPqxEXAX-65" value="" style="rounded=0;whiteSpace=wrap;html=1;" vertex="1" parent="1">
          <mxGeometry x="840" y="750" width="100" height="70" as="geometry" />
        </mxCell>
        <mxCell id="9TOt8isL0yTTxPqxEXAX-66" value="" style="rounded=0;whiteSpace=wrap;html=1;" vertex="1" parent="1">
          <mxGeometry x="602.5" y="850" width="105" height="70" as="geometry" />
        </mxCell>
        <mxCell id="9TOt8isL0yTTxPqxEXAX-67" value="" style="rounded=0;whiteSpace=wrap;html=1;" vertex="1" parent="1">
          <mxGeometry x="727" y="850" width="100" height="70" as="geometry" />
        </mxCell>
        <mxCell id="9TOt8isL0yTTxPqxEXAX-68" value="" style="rounded=0;whiteSpace=wrap;html=1;" vertex="1" parent="1">
          <mxGeometry x="840" y="850" width="100" height="70" as="geometry" />
        </mxCell>
        <mxCell id="9TOt8isL0yTTxPqxEXAX-69" value="" style="rounded=0;whiteSpace=wrap;html=1;" vertex="1" parent="1">
          <mxGeometry x="600" y="940" width="110" height="70" as="geometry" />
        </mxCell>
        <mxCell id="9TOt8isL0yTTxPqxEXAX-70" value="" style="rounded=0;whiteSpace=wrap;html=1;" vertex="1" parent="1">
          <mxGeometry x="727" y="940" width="100" height="70" as="geometry" />
        </mxCell>
        <mxCell id="9TOt8isL0yTTxPqxEXAX-71" value="" style="rounded=0;whiteSpace=wrap;html=1;" vertex="1" parent="1">
          <mxGeometry x="840" y="940" width="100" height="70" as="geometry" />
        </mxCell>
        <mxCell id="9TOt8isL0yTTxPqxEXAX-72" value="" style="rounded=0;whiteSpace=wrap;html=1;" vertex="1" parent="1">
          <mxGeometry x="360" y="730" width="210" height="300" as="geometry" />
        </mxCell>
        <mxCell id="9TOt8isL0yTTxPqxEXAX-73" value="Mesa Privada" style="text;html=1;align=center;verticalAlign=middle;whiteSpace=wrap;rounded=0;" vertex="1" parent="1">
          <mxGeometry x="412.5" y="740" width="105" height="30" as="geometry" />
        </mxCell>
        <mxCell id="9TOt8isL0yTTxPqxEXAX-75" value="" style="rounded=0;whiteSpace=wrap;html=1;" vertex="1" parent="1">
          <mxGeometry x="370" y="790" width="190" height="30" as="geometry" />
        </mxCell>
        <mxCell id="9TOt8isL0yTTxPqxEXAX-76" value="" style="rounded=0;whiteSpace=wrap;html=1;" vertex="1" parent="1">
          <mxGeometry x="370" y="850" width="190" height="30" as="geometry" />
        </mxCell>
        <mxCell id="9TOt8isL0yTTxPqxEXAX-77" value="" style="rounded=1;whiteSpace=wrap;html=1;" vertex="1" parent="1">
          <mxGeometry x="415" y="930" width="90" height="30" as="geometry" />
        </mxCell>
        <mxCell id="9TOt8isL0yTTxPqxEXAX-78" value="Partida para jugadores" style="text;html=1;align=center;verticalAlign=middle;resizable=0;points=[];autosize=1;strokeColor=none;fillColor=none;" vertex="1" parent="1">
          <mxGeometry x="350" y="1560" width="140" height="30" as="geometry" />
        </mxCell>
        <mxCell id="9TOt8isL0yTTxPqxEXAX-79" value="" style="rounded=0;whiteSpace=wrap;html=1;" vertex="1" parent="1">
          <mxGeometry x="45" y="1640" width="235" height="430" as="geometry" />
        </mxCell>
        <mxCell id="9TOt8isL0yTTxPqxEXAX-80" value="Pizarra" style="rounded=0;whiteSpace=wrap;html=1;" vertex="1" parent="1">
          <mxGeometry x="45" y="1640" width="235" height="230" as="geometry" />
        </mxCell>
        <mxCell id="9TOt8isL0yTTxPqxEXAX-81" value="" style="rounded=0;whiteSpace=wrap;html=1;" vertex="1" parent="1">
          <mxGeometry x="45" y="1870" width="65" height="200" as="geometry" />
        </mxCell>
        <mxCell id="9TOt8isL0yTTxPqxEXAX-82" value="Chat" style="rounded=0;whiteSpace=wrap;html=1;" vertex="1" parent="1">
          <mxGeometry x="110" y="2020" width="170" height="50" as="geometry" />
        </mxCell>
        <mxCell id="9TOt8isL0yTTxPqxEXAX-83" value="" style="endArrow=none;html=1;rounded=0;exitX=0;exitY=0.25;exitDx=0;exitDy=0;entryX=1;entryY=0.25;entryDx=0;entryDy=0;" edge="1" parent="1" source="9TOt8isL0yTTxPqxEXAX-81" target="9TOt8isL0yTTxPqxEXAX-81">
          <mxGeometry width="50" height="50" relative="1" as="geometry">
            <mxPoint x="400" y="1900" as="sourcePoint" />
            <mxPoint x="450" y="1850" as="targetPoint" />
          </mxGeometry>
        </mxCell>
        <mxCell id="9TOt8isL0yTTxPqxEXAX-84" value="" style="endArrow=none;html=1;rounded=0;exitX=0;exitY=0.25;exitDx=0;exitDy=0;entryX=1;entryY=0.25;entryDx=0;entryDy=0;" edge="1" parent="1">
          <mxGeometry width="50" height="50" relative="1" as="geometry">
            <mxPoint x="45" y="1960" as="sourcePoint" />
            <mxPoint x="110" y="1960" as="targetPoint" />
          </mxGeometry>
        </mxCell>
        <mxCell id="9TOt8isL0yTTxPqxEXAX-85" value="" style="endArrow=none;html=1;rounded=0;exitX=0;exitY=0.25;exitDx=0;exitDy=0;entryX=1;entryY=0.25;entryDx=0;entryDy=0;" edge="1" parent="1">
          <mxGeometry width="50" height="50" relative="1" as="geometry">
            <mxPoint x="45" y="2000" as="sourcePoint" />
            <mxPoint x="110" y="2000" as="targetPoint" />
          </mxGeometry>
        </mxCell>
        <mxCell id="9TOt8isL0yTTxPqxEXAX-86" value="" style="endArrow=none;html=1;rounded=0;exitX=0;exitY=0.25;exitDx=0;exitDy=0;entryX=1;entryY=0.25;entryDx=0;entryDy=0;" edge="1" parent="1">
          <mxGeometry width="50" height="50" relative="1" as="geometry">
            <mxPoint x="45" y="2040" as="sourcePoint" />
            <mxPoint x="110" y="2040" as="targetPoint" />
          </mxGeometry>
        </mxCell>
        <mxCell id="9TOt8isL0yTTxPqxEXAX-87" value="" style="rounded=0;whiteSpace=wrap;html=1;" vertex="1" parent="1">
          <mxGeometry x="320" y="1640" width="560" height="350" as="geometry" />
        </mxCell>
        <mxCell id="9TOt8isL0yTTxPqxEXAX-88" value="pizarra" style="rounded=0;whiteSpace=wrap;html=1;" vertex="1" parent="1">
          <mxGeometry x="470" y="1680" width="260" height="250" as="geometry" />
        </mxCell>
        <mxCell id="9TOt8isL0yTTxPqxEXAX-89" value="&lt;font style=&quot;font-size: 10px;&quot;&gt;Foto perfil, nombre, puntos&lt;/font&gt;" style="rounded=0;whiteSpace=wrap;html=1;" vertex="1" parent="1">
          <mxGeometry x="340" y="1680" width="120" height="230" as="geometry" />
        </mxCell>
        <mxCell id="9TOt8isL0yTTxPqxEXAX-91" value="" style="endArrow=none;html=1;rounded=0;exitX=-0.021;exitY=0.18;exitDx=0;exitDy=0;exitPerimeter=0;entryX=1;entryY=0.18;entryDx=0;entryDy=0;entryPerimeter=0;" edge="1" parent="1" source="9TOt8isL0yTTxPqxEXAX-89" target="9TOt8isL0yTTxPqxEXAX-89">
          <mxGeometry width="50" height="50" relative="1" as="geometry">
            <mxPoint x="650" y="1940" as="sourcePoint" />
            <mxPoint x="700" y="1890" as="targetPoint" />
          </mxGeometry>
        </mxCell>
        <mxCell id="9TOt8isL0yTTxPqxEXAX-92" value="" style="endArrow=none;html=1;rounded=0;exitX=-0.021;exitY=0.18;exitDx=0;exitDy=0;exitPerimeter=0;entryX=1;entryY=0.18;entryDx=0;entryDy=0;entryPerimeter=0;" edge="1" parent="1">
          <mxGeometry width="50" height="50" relative="1" as="geometry">
            <mxPoint x="337" y="1770" as="sourcePoint" />
            <mxPoint x="460" y="1770" as="targetPoint" />
          </mxGeometry>
        </mxCell>
        <mxCell id="9TOt8isL0yTTxPqxEXAX-93" value="" style="endArrow=none;html=1;rounded=0;exitX=-0.021;exitY=0.18;exitDx=0;exitDy=0;exitPerimeter=0;entryX=1;entryY=0.18;entryDx=0;entryDy=0;entryPerimeter=0;" edge="1" parent="1">
          <mxGeometry width="50" height="50" relative="1" as="geometry">
            <mxPoint x="337" y="1814.5" as="sourcePoint" />
            <mxPoint x="460" y="1814.5" as="targetPoint" />
          </mxGeometry>
        </mxCell>
        <mxCell id="9TOt8isL0yTTxPqxEXAX-94" value="" style="endArrow=none;html=1;rounded=0;exitX=-0.021;exitY=0.18;exitDx=0;exitDy=0;exitPerimeter=0;entryX=1;entryY=0.18;entryDx=0;entryDy=0;entryPerimeter=0;" edge="1" parent="1">
          <mxGeometry width="50" height="50" relative="1" as="geometry">
            <mxPoint x="340" y="1854.5" as="sourcePoint" />
            <mxPoint x="463" y="1854.5" as="targetPoint" />
          </mxGeometry>
        </mxCell>
        <mxCell id="9TOt8isL0yTTxPqxEXAX-95" value="chat" style="rounded=0;whiteSpace=wrap;html=1;" vertex="1" parent="1">
          <mxGeometry x="740" y="1680" width="127.5" height="250" as="geometry" />
        </mxCell>
        <mxCell id="9TOt8isL0yTTxPqxEXAX-97" value="" style="rounded=0;whiteSpace=wrap;html=1;" vertex="1" parent="1">
          <mxGeometry x="740" y="1900" width="130" height="30" as="geometry" />
        </mxCell>
        <mxCell id="9TOt8isL0yTTxPqxEXAX-98" value="Partida para dibujante" style="text;html=1;align=center;verticalAlign=middle;resizable=0;points=[];autosize=1;strokeColor=none;fillColor=none;" vertex="1" parent="1">
          <mxGeometry x="372.5" y="2140" width="140" height="30" as="geometry" />
        </mxCell>
        <mxCell id="9TOt8isL0yTTxPqxEXAX-99" value="" style="rounded=0;whiteSpace=wrap;html=1;" vertex="1" parent="1">
          <mxGeometry x="67.5" y="2220" width="235" height="430" as="geometry" />
        </mxCell>
        <mxCell id="9TOt8isL0yTTxPqxEXAX-100" value="Pizarra" style="rounded=0;whiteSpace=wrap;html=1;" vertex="1" parent="1">
          <mxGeometry x="67.5" y="2220" width="235" height="230" as="geometry" />
        </mxCell>
        <mxCell id="9TOt8isL0yTTxPqxEXAX-101" value="" style="rounded=0;whiteSpace=wrap;html=1;" vertex="1" parent="1">
          <mxGeometry x="67.5" y="2450" width="65" height="200" as="geometry" />
        </mxCell>
        <mxCell id="9TOt8isL0yTTxPqxEXAX-102" value="Chat" style="rounded=0;whiteSpace=wrap;html=1;" vertex="1" parent="1">
          <mxGeometry x="132.5" y="2600" width="170" height="50" as="geometry" />
        </mxCell>
        <mxCell id="9TOt8isL0yTTxPqxEXAX-103" value="" style="endArrow=none;html=1;rounded=0;exitX=0;exitY=0.25;exitDx=0;exitDy=0;entryX=1;entryY=0.25;entryDx=0;entryDy=0;" edge="1" parent="1" source="9TOt8isL0yTTxPqxEXAX-101" target="9TOt8isL0yTTxPqxEXAX-101">
          <mxGeometry width="50" height="50" relative="1" as="geometry">
            <mxPoint x="422.5" y="2480" as="sourcePoint" />
            <mxPoint x="472.5" y="2430" as="targetPoint" />
          </mxGeometry>
        </mxCell>
        <mxCell id="9TOt8isL0yTTxPqxEXAX-104" value="" style="endArrow=none;html=1;rounded=0;exitX=0;exitY=0.25;exitDx=0;exitDy=0;entryX=1;entryY=0.25;entryDx=0;entryDy=0;" edge="1" parent="1">
          <mxGeometry width="50" height="50" relative="1" as="geometry">
            <mxPoint x="67.5" y="2540" as="sourcePoint" />
            <mxPoint x="132.5" y="2540" as="targetPoint" />
          </mxGeometry>
        </mxCell>
        <mxCell id="9TOt8isL0yTTxPqxEXAX-105" value="" style="endArrow=none;html=1;rounded=0;exitX=0;exitY=0.25;exitDx=0;exitDy=0;entryX=1;entryY=0.25;entryDx=0;entryDy=0;" edge="1" parent="1">
          <mxGeometry width="50" height="50" relative="1" as="geometry">
            <mxPoint x="67.5" y="2580" as="sourcePoint" />
            <mxPoint x="132.5" y="2580" as="targetPoint" />
          </mxGeometry>
        </mxCell>
        <mxCell id="9TOt8isL0yTTxPqxEXAX-106" value="" style="endArrow=none;html=1;rounded=0;exitX=0;exitY=0.25;exitDx=0;exitDy=0;entryX=1;entryY=0.25;entryDx=0;entryDy=0;" edge="1" parent="1">
          <mxGeometry width="50" height="50" relative="1" as="geometry">
            <mxPoint x="67.5" y="2620" as="sourcePoint" />
            <mxPoint x="132.5" y="2620" as="targetPoint" />
          </mxGeometry>
        </mxCell>
        <mxCell id="9TOt8isL0yTTxPqxEXAX-107" value="" style="rounded=0;whiteSpace=wrap;html=1;" vertex="1" parent="1">
          <mxGeometry x="342.5" y="2220" width="560" height="350" as="geometry" />
        </mxCell>
        <mxCell id="9TOt8isL0yTTxPqxEXAX-108" value="pizarra" style="rounded=0;whiteSpace=wrap;html=1;" vertex="1" parent="1">
          <mxGeometry x="492.5" y="2260" width="260" height="250" as="geometry" />
        </mxCell>
        <mxCell id="9TOt8isL0yTTxPqxEXAX-109" value="&lt;font style=&quot;font-size: 10px;&quot;&gt;Foto perfil, nombre, puntos&lt;/font&gt;" style="rounded=0;whiteSpace=wrap;html=1;" vertex="1" parent="1">
          <mxGeometry x="362.5" y="2260" width="120" height="230" as="geometry" />
        </mxCell>
        <mxCell id="9TOt8isL0yTTxPqxEXAX-110" value="" style="endArrow=none;html=1;rounded=0;exitX=-0.021;exitY=0.18;exitDx=0;exitDy=0;exitPerimeter=0;entryX=1;entryY=0.18;entryDx=0;entryDy=0;entryPerimeter=0;" edge="1" parent="1" source="9TOt8isL0yTTxPqxEXAX-109" target="9TOt8isL0yTTxPqxEXAX-109">
          <mxGeometry width="50" height="50" relative="1" as="geometry">
            <mxPoint x="672.5" y="2520" as="sourcePoint" />
            <mxPoint x="722.5" y="2470" as="targetPoint" />
          </mxGeometry>
        </mxCell>
        <mxCell id="9TOt8isL0yTTxPqxEXAX-111" value="" style="endArrow=none;html=1;rounded=0;exitX=-0.021;exitY=0.18;exitDx=0;exitDy=0;exitPerimeter=0;entryX=1;entryY=0.18;entryDx=0;entryDy=0;entryPerimeter=0;" edge="1" parent="1">
          <mxGeometry width="50" height="50" relative="1" as="geometry">
            <mxPoint x="359.5" y="2350" as="sourcePoint" />
            <mxPoint x="482.5" y="2350" as="targetPoint" />
          </mxGeometry>
        </mxCell>
        <mxCell id="9TOt8isL0yTTxPqxEXAX-112" value="" style="endArrow=none;html=1;rounded=0;exitX=-0.021;exitY=0.18;exitDx=0;exitDy=0;exitPerimeter=0;entryX=1;entryY=0.18;entryDx=0;entryDy=0;entryPerimeter=0;" edge="1" parent="1">
          <mxGeometry width="50" height="50" relative="1" as="geometry">
            <mxPoint x="359.5" y="2394.5" as="sourcePoint" />
            <mxPoint x="482.5" y="2394.5" as="targetPoint" />
          </mxGeometry>
        </mxCell>
        <mxCell id="9TOt8isL0yTTxPqxEXAX-113" value="" style="endArrow=none;html=1;rounded=0;exitX=-0.021;exitY=0.18;exitDx=0;exitDy=0;exitPerimeter=0;entryX=1;entryY=0.18;entryDx=0;entryDy=0;entryPerimeter=0;" edge="1" parent="1">
          <mxGeometry width="50" height="50" relative="1" as="geometry">
            <mxPoint x="362.5" y="2434.5" as="sourcePoint" />
            <mxPoint x="485.5" y="2434.5" as="targetPoint" />
          </mxGeometry>
        </mxCell>
        <mxCell id="9TOt8isL0yTTxPqxEXAX-114" value="chat" style="rounded=0;whiteSpace=wrap;html=1;" vertex="1" parent="1">
          <mxGeometry x="762.5" y="2260" width="127.5" height="250" as="geometry" />
        </mxCell>
        <mxCell id="9TOt8isL0yTTxPqxEXAX-115" value="" style="rounded=0;whiteSpace=wrap;html=1;" vertex="1" parent="1">
          <mxGeometry x="762.5" y="2480" width="130" height="30" as="geometry" />
        </mxCell>
        <mxCell id="9TOt8isL0yTTxPqxEXAX-116" value="palabra" style="rounded=0;whiteSpace=wrap;html=1;" vertex="1" parent="1">
          <mxGeometry x="72.5" y="2230" width="175" height="20" as="geometry" />
        </mxCell>
        <mxCell id="9TOt8isL0yTTxPqxEXAX-117" value="opciones dibujar" style="rounded=0;whiteSpace=wrap;html=1;" vertex="1" parent="1">
          <mxGeometry x="70" y="2425" width="230" height="20" as="geometry" />
        </mxCell>
        <mxCell id="9TOt8isL0yTTxPqxEXAX-118" value="palabra" style="rounded=0;whiteSpace=wrap;html=1;" vertex="1" parent="1">
          <mxGeometry x="505" y="2270" width="175" height="20" as="geometry" />
        </mxCell>
        <mxCell id="9TOt8isL0yTTxPqxEXAX-119" value="opciones dibujar" style="rounded=0;whiteSpace=wrap;html=1;" vertex="1" parent="1">
          <mxGeometry x="507.5" y="2485" width="230" height="20" as="geometry" />
        </mxCell>
        <mxCell id="9TOt8isL0yTTxPqxEXAX-121" value="Tiempo" style="text;html=1;align=center;verticalAlign=middle;whiteSpace=wrap;rounded=0;" vertex="1" parent="1">
          <mxGeometry x="691.25" y="2270" width="57.5" height="20" as="geometry" />
        </mxCell>
        <mxCell id="9TOt8isL0yTTxPqxEXAX-122" style="edgeStyle=orthogonalEdgeStyle;rounded=0;orthogonalLoop=1;jettySize=auto;html=1;exitX=0.5;exitY=0;exitDx=0;exitDy=0;entryX=0.25;entryY=0;entryDx=0;entryDy=0;" edge="1" parent="1" source="9TOt8isL0yTTxPqxEXAX-121" target="9TOt8isL0yTTxPqxEXAX-121">
          <mxGeometry relative="1" as="geometry" />
        </mxCell>
        <mxCell id="9TOt8isL0yTTxPqxEXAX-124" value="Tiempo&lt;div&gt;&lt;br&gt;&lt;/div&gt;" style="text;html=1;align=center;verticalAlign=middle;whiteSpace=wrap;rounded=0;" vertex="1" parent="1">
          <mxGeometry x="242.5" y="2230" width="60" height="30" as="geometry" />
        </mxCell>
        <mxCell id="9TOt8isL0yTTxPqxEXAX-125" value="Tiempo&lt;div&gt;&lt;br&gt;&lt;/div&gt;" style="text;html=1;align=center;verticalAlign=middle;whiteSpace=wrap;rounded=0;" vertex="1" parent="1">
          <mxGeometry x="667" y="1690" width="60" height="30" as="geometry" />
        </mxCell>
        <mxCell id="9TOt8isL0yTTxPqxEXAX-126" value="Tiempo&lt;div&gt;&lt;br&gt;&lt;/div&gt;" style="text;html=1;align=center;verticalAlign=middle;whiteSpace=wrap;rounded=0;" vertex="1" parent="1">
          <mxGeometry x="210" y="1650" width="60" height="30" as="geometry" />
        </mxCell>
        <mxCell id="9TOt8isL0yTTxPqxEXAX-127" value="Crear mesa" style="rounded=0;whiteSpace=wrap;html=1;" vertex="1" parent="1">
          <mxGeometry x="415" y="980" width="90" height="30" as="geometry" />
        </mxCell>
        <mxCell id="9TOt8isL0yTTxPqxEXAX-130" value="Crear mesa" style="rounded=0;whiteSpace=wrap;html=1;" vertex="1" parent="1">
          <mxGeometry x="115" y="1400" width="90" height="30" as="geometry" />
        </mxCell>
        <mxCell id="9TOt8isL0yTTxPqxEXAX-132" value="" style="rounded=0;whiteSpace=wrap;html=1;" vertex="1" parent="1">
          <mxGeometry x="1070" y="680" width="240" height="390" as="geometry" />
        </mxCell>
        <mxCell id="9TOt8isL0yTTxPqxEXAX-133" value="" style="rounded=1;whiteSpace=wrap;html=1;" vertex="1" parent="1">
          <mxGeometry x="1080" y="720" width="220" height="320" as="geometry" />
        </mxCell>
        <mxCell id="9TOt8isL0yTTxPqxEXAX-134" value="" style="endArrow=none;html=1;rounded=0;exitX=0.004;exitY=0.135;exitDx=0;exitDy=0;exitPerimeter=0;entryX=1;entryY=0.131;entryDx=0;entryDy=0;entryPerimeter=0;" edge="1" parent="1" source="9TOt8isL0yTTxPqxEXAX-133" target="9TOt8isL0yTTxPqxEXAX-133">
          <mxGeometry width="50" height="50" relative="1" as="geometry">
            <mxPoint x="1420" y="860" as="sourcePoint" />
            <mxPoint x="1470" y="810" as="targetPoint" />
          </mxGeometry>
        </mxCell>
        <mxCell id="9TOt8isL0yTTxPqxEXAX-154" value="" style="rounded=0;whiteSpace=wrap;html=1;" vertex="1" parent="1">
          <mxGeometry x="1350" y="680" width="680" height="400" as="geometry" />
        </mxCell>
        <mxCell id="9TOt8isL0yTTxPqxEXAX-155" value="" style="rounded=0;whiteSpace=wrap;html=1;" vertex="1" parent="1">
          <mxGeometry x="1380" y="720" width="610" height="320" as="geometry" />
        </mxCell>
        <mxCell id="9TOt8isL0yTTxPqxEXAX-171" value="Crear mesa" style="rounded=0;whiteSpace=wrap;html=1;" vertex="1" parent="1">
          <mxGeometry x="1630" y="990" width="90" height="30" as="geometry" />
        </mxCell>
        <mxCell id="9TOt8isL0yTTxPqxEXAX-174" value="&lt;font style=&quot;font-size: 18px;&quot;&gt;Loby crear mesas&lt;/font&gt;" style="text;html=1;align=center;verticalAlign=middle;resizable=0;points=[];autosize=1;strokeColor=none;fillColor=none;" vertex="1" parent="1">
          <mxGeometry x="1445" y="590" width="170" height="40" as="geometry" />
        </mxCell>
        <mxCell id="9TOt8isL0yTTxPqxEXAX-175" value="Crear mesa" style="text;html=1;align=center;verticalAlign=middle;whiteSpace=wrap;rounded=0;" vertex="1" parent="1">
          <mxGeometry x="1135" y="730" width="110" height="30" as="geometry" />
        </mxCell>
        <mxCell id="9TOt8isL0yTTxPqxEXAX-178" value="Codigo de mesa (aleatorio)" style="rounded=0;whiteSpace=wrap;html=1;" vertex="1" parent="1">
          <mxGeometry x="1565" y="790" width="225" height="40" as="geometry" />
        </mxCell>
        <mxCell id="9TOt8isL0yTTxPqxEXAX-179" value="Pin de mesa" style="rounded=0;whiteSpace=wrap;html=1;" vertex="1" parent="1">
          <mxGeometry x="1565" y="850" width="225" height="40" as="geometry" />
        </mxCell>
        <mxCell id="9TOt8isL0yTTxPqxEXAX-181" value="Si deja el PIN vacio, la mesa sera publica" style="text;html=1;align=center;verticalAlign=middle;whiteSpace=wrap;rounded=0;" vertex="1" parent="1">
          <mxGeometry x="1560" y="900" width="235" height="30" as="geometry" />
        </mxCell>
        <mxCell id="9TOt8isL0yTTxPqxEXAX-182" value="palabra por letras" style="rounded=0;whiteSpace=wrap;html=1;" vertex="1" parent="1">
          <mxGeometry x="475" y="1690" width="175" height="20" as="geometry" />
        </mxCell>
        <mxCell id="9TOt8isL0yTTxPqxEXAX-183" value="palabra por letras" style="rounded=0;whiteSpace=wrap;html=1;" vertex="1" parent="1">
          <mxGeometry x="45" y="1650" width="175" height="20" as="geometry" />
        </mxCell>
        <mxCell id="9TOt8isL0yTTxPqxEXAX-184" value="Codigo de mesa (aleatorio)" style="rounded=0;whiteSpace=wrap;html=1;" vertex="1" parent="1">
          <mxGeometry x="1092.5" y="785" width="195" height="40" as="geometry" />
        </mxCell>
        <mxCell id="9TOt8isL0yTTxPqxEXAX-185" value="Pin de mesa" style="rounded=0;whiteSpace=wrap;html=1;" vertex="1" parent="1">
          <mxGeometry x="1087.5" y="840" width="205" height="40" as="geometry" />
        </mxCell>
        <mxCell id="9TOt8isL0yTTxPqxEXAX-186" value="Si deja el PIN vacio, la mesa sera publica" style="text;html=1;align=center;verticalAlign=middle;whiteSpace=wrap;rounded=0;" vertex="1" parent="1">
          <mxGeometry x="1085" y="890" width="215" height="30" as="geometry" />
        </mxCell>
        <mxCell id="9TOt8isL0yTTxPqxEXAX-188" value="Crear mesa" style="rounded=0;whiteSpace=wrap;html=1;" vertex="1" parent="1">
          <mxGeometry x="1145" y="995" width="90" height="30" as="geometry" />
        </mxCell>
      </root>
    </mxGraphModel>
  </diagram>
</mxfile>
